<?xml version="1.0" encoding="UTF-8"?>
<svg id="Layer_1" data-name="Layer 1" xmlns="http://www.w3.org/2000/svg" viewBox="0 0 1536 1024">
  <defs>
    <style>
      .cls-1 {
        fill: #7d8b6c;
      }

      .cls-2 {
        fill: #ccb797;
      }

      .cls-3 {
        fill: #8b9d83;
      }

      .cls-4 {
        fill: #722f37;
      }
    </style>
  </defs>
  <path class="cls-4" d="M580.32,168.18v26.54h-185.78v78.67c0,.42-2.8,2.09-1.9,2.82,117.13.71,212.68,34.74,297.65,114.69,27.74,26.11,49.57,56.87,74.87,84.43,107.8-94.09,227.19-179.66,376.3-185.83v-94.79h-181.99v-26.54h208.53v486.26c0,34.55-24.67,69.25-51.37,88.91-97.58,71.84-216.45,132.55-318.35,199.19-29.26,9.98-50.61,5.7-77.05-8.16-103.17-54.1-204.03-138.4-307.57-194.8-22.57-17.57-45.66-54.01-45.66-83.25V168.18h212.32ZM394.54,297.09v28.44c131.95,7.88,236.15,84.36,307.33,191.31l43.34-27.33c-60.68-82.42-135.23-151.12-237.28-175.96-37.31-9.08-75.38-11.73-113.4-16.46ZM1141.46,353.97v-43.6c-66.31,9.91-128.22,24.64-187.72,55.89-99.63,52.33-171.14,144.25-274.87,189.63l32.87,27.96,5.08.6c151.61-58.69,252.15-221.12,424.63-230.49ZM394.54,378.61c55.63,13.16,104.89,46.44,149.56,80.78,15.71,12.08,35.13,33.64,49.58,43.31,18.65,12.47,47.9,18.9,64.36,38.03l24.66-13.34c-66.41-99.59-165.25-172.03-288.16-179.11v30.33ZM1141.46,420.32v-45.5c-90.03,7.58-161.54,56.8-231.9,108.38-55.48,40.67-104.93,91.22-171.91,114.37,53.33,21.93,109.65-9.5,154.56-36.93,81.6-49.83,149.94-124.67,249.25-140.32ZM394.54,401.36v60.66c50.04,17.2,102.43,27.38,155.47,29.38-48.41-35.16-96.18-74.73-155.47-90.05ZM1141.46,490.46v-47.39c-83.03,15.31-146.32,73.54-212.32,121.31,68.6-33.19,134.73-66.63,212.32-73.91ZM394.54,484.77v34.12c72.98,20.85,143.13,14.27,210.28,54.18,38.87,23.1,70.22,59.3,114.31,73.37,18.27,5.83,38.19,4.94,53.96,18.09l55.58-43.25c-27.37,8.05-56.93,10.92-84.89,4.3-52.48-12.42-83.4-61.51-128.06-86.16-67.15-37.06-151.64-22.03-221.17-54.66ZM394.54,655.39c1.87,17.37,8.36,35.75,20.89,48.3,23.77-.42,43.9-1.31,67.33,4.72,58.29,15,80.56,68.47,148.38,79.11,55.27,8.67,56.75-16.42,93.85-39.6,14.69-9.18,32.16-13.05,47.48-20.77,47.17-23.77,74.5-69.21,119.38-94.83,27.87-15.91,59.19-19.72,87.85-33.48,36.5-17.52,43.97-28.4,86.42-40.59,24.37-7,48.43-14.97,73.51-19.38l1.8-25.66c-50.34,7.4-93.05,21.07-139.04,41.98-35.34,16.06-70.76,31.51-106.16,47.39-74.07,33.24-141.44,108.76-214.82,143.47-75.56,35.74-115.33-64.46-173.15-89.69-39.4-17.19-73.49-9.4-113.73-.96ZM394.54,583.35c54.81-9.02,121.92-10.75,171.88,16.74,35.57,19.58,61.47,56.46,96.72,75.79,17.29,9.48,37.95,14.39,55.1,24.74l40.24-25.33c.4-6.77-41.45-13.75-48.36-16.06-56.84-19.03-95.21-71.47-153.99-92.46-51.16-18.27-109.95-13.81-161.59-32.72v49.29ZM1141.46,591.88v-36.97c-25.76,5.03-50.69,12.7-75.82,20.08-39.16,11.49-54.88,28.29-89.72,42.82-23.17,9.66-48.82,13.29-71.46,25.22-38.59,20.34-63.3,58.06-97.92,82.18-23.58,16.42-48.95,20.79-71.33,34.83-38.13,23.91-44.51,50.77-100.32,44.59-74.54-8.26-105.97-74.32-169.47-84.56-4.87-.79-34.03-3.44-34.87.73l208.53,130.98c24.06-2.54,47.43,2.4,70.15-7.77,24.22-10.85,41.01-41.14,63.9-55.53,19.43-12.22,39.94-13.41,59.31-22.21,29.87-13.56,41.06-48.32,65.5-69.1,27.22-23.15,60.99-29.3,91.63-44.86,37.98-19.28,53.26-39.64,99.17-50.59,17.48-4.17,36.09-5.48,52.73-9.83ZM394.54,640.22c44.9-13.53,92.58-15.4,134.01,9.12,56.63,33.5,96.55,135.23,173.06,61.97-17.9-13.85-38.44-17.1-57.84-29.33-31.99-20.17-56.66-55.06-91.17-71.86-47.67-23.21-107.01-18.68-158.06-11.61v41.71ZM1141.46,609.89c-25.43.97-54.25,6.33-77.69,16.15-21.53,9.02-38.58,25.02-58.77,36.02-32.42,17.67-78.62,26.32-104.39,52.95-18.01,18.61-25.41,43.27-49.37,58.68-20.65,13.28-44.62,14.19-65.54,25.46-30.68,16.53-54.4,66.66-96.37,66.66h-27.49c25.79,13.26,55.04,48.26,86.35,38.01,16.77-5.49,28.03-33.13,39.71-45.6,29.68-31.71,71.54-24.49,103.4-55.84,14.76-14.52,24.58-36.92,38.77-52.22,17.71-19.1,116.66-67.34,145.08-78.62,20.76-8.24,44.13-15.17,66.32-18.04v-43.6ZM1139.56,670.57c-20.49,1.75-39.76,8.7-58.7,16.16-30.93,12.19-121.43,54.86-141.32,76.69-24.89,27.32-32.06,54.93-69.81,72.37-18.55,8.57-41.35,10.01-58.01,21.61-24.11,16.79-31.83,51.5-60.78,63.36,21.81,6.32,37.68-1.26,56.23-11.03,98.51-51.92,193.41-129.67,291.25-184.58,19.64-13.66,34.91-30.96,41.13-54.58Z"/>
  <path class="cls-2" d="M1141.46,591.88c-16.64,4.35-35.25,5.66-52.73,9.83-45.91,10.95-61.19,31.31-99.17,50.59-30.64,15.56-64.41,21.71-91.63,44.86-24.43,20.78-35.63,55.54-65.5,69.1-19.37,8.79-39.87,9.99-59.31,22.21-22.89,14.39-39.68,44.68-63.9,55.53-22.72,10.17-46.1,5.23-70.15,7.77l-208.53-130.98c.84-4.17,30-1.51,34.87-.73,63.5,10.24,94.93,76.3,169.47,84.56,55.81,6.18,62.19-20.68,100.32-44.59,22.39-14.04,47.76-18.4,71.33-34.83,34.62-24.11,59.33-61.84,97.92-82.18,22.65-11.93,48.29-15.56,71.46-25.22,34.83-14.53,50.56-31.33,89.72-42.82,25.14-7.37,50.06-15.04,75.82-20.08v36.97Z"/>
  <path class="cls-2" d="M394.54,655.39c40.24-8.44,74.33-16.23,113.73.96,57.82,25.23,97.59,125.43,173.15,89.69,73.38-34.71,140.75-110.23,214.82-143.47,35.4-15.88,70.82-31.33,106.16-47.39,45.99-20.9,88.71-34.58,139.04-41.98l-1.8,25.66c-25.08,4.41-49.14,12.38-73.51,19.38-42.45,12.19-49.93,23.07-86.42,40.59-28.66,13.76-59.98,17.56-87.85,33.48-44.89,25.63-72.21,71.07-119.38,94.83-15.32,7.72-32.79,11.58-47.48,20.77-37.1,23.18-38.59,48.27-93.85,39.6-67.82-10.64-90.09-64.11-148.38-79.11-23.44-6.03-43.56-5.14-67.33-4.72-12.53-12.55-19.02-30.93-20.89-48.3Z"/>
  <path class="cls-1" d="M1141.46,353.97c-172.48,9.36-273.02,171.8-424.63,230.49l-5.08-.6-32.87-27.96c103.73-45.39,175.24-137.31,274.87-189.63,59.5-31.25,121.4-45.98,187.72-55.89v43.6Z"/>
  <path class="cls-2" d="M1141.46,609.89v43.6c-22.19,2.87-45.56,9.81-66.32,18.04-28.42,11.28-127.36,59.52-145.08,78.62-14.19,15.3-24.01,37.7-38.77,52.22-31.86,31.35-73.72,24.13-103.4,55.84-11.68,12.47-22.94,40.11-39.71,45.6-31.31,10.25-60.56-24.74-86.35-38.01h27.49c41.97,0,65.69-50.13,96.37-66.66,20.92-11.27,44.89-12.18,65.54-25.46,23.96-15.41,31.36-40.07,49.37-58.68,25.78-26.63,71.97-35.29,104.39-52.95,20.18-11,37.24-27,58.77-36.02,23.44-9.82,52.25-15.18,77.69-16.15Z"/>
  <path class="cls-1" d="M1141.46,420.32c-99.32,15.65-167.65,90.5-249.25,140.32-44.91,27.43-101.24,58.86-154.56,36.93,66.98-23.14,116.43-73.7,171.91-114.37,70.36-51.58,141.88-100.8,231.9-108.38v45.5Z"/>
  <path class="cls-2" d="M1139.56,670.57c-6.22,23.62-21.49,40.92-41.13,54.58-97.85,54.91-192.74,132.66-291.25,184.58-18.55,9.78-34.42,17.35-56.23,11.03,28.94-11.86,36.67-46.56,60.78-63.36,16.66-11.6,39.46-13.04,58.01-21.61,37.75-17.44,44.92-45.05,69.81-72.37,19.89-21.84,110.39-64.5,141.32-76.69,18.94-7.46,38.21-14.41,58.7-16.16Z"/>
  <path class="cls-3" d="M394.54,297.09c38.02,4.73,76.09,7.38,113.4,16.46,102.05,24.84,176.6,93.53,237.28,175.96l-43.34,27.33c-71.19-106.95-175.39-183.43-307.33-191.31v-28.44Z"/>
  <path class="cls-3" d="M394.54,378.61v-30.33c122.91,7.08,221.75,79.52,288.16,179.11l-24.66,13.34c-16.47-19.13-45.71-25.56-64.36-38.03-14.46-9.67-33.88-31.23-49.58-43.31-44.66-34.34-93.93-67.62-149.56-80.78Z"/>
  <path class="cls-2" d="M394.54,640.22v-41.71c51.05-7.07,110.39-11.6,158.06,11.61,34.51,16.8,59.18,51.69,91.17,71.86,19.4,12.23,39.94,15.48,57.84,29.33-76.51,73.26-116.43-28.47-173.06-61.97-41.43-24.51-89.12-22.65-134.01-9.12Z"/>
  <path class="cls-2" d="M394.54,484.77c69.54,32.62,154.02,17.59,221.17,54.66,44.66,24.65,75.58,73.74,128.06,86.16,27.96,6.62,57.52,3.75,84.89-4.3l-55.58,43.25c-15.76-13.15-35.69-12.27-53.96-18.09-44.09-14.07-75.45-50.26-114.31-73.37-67.14-39.91-137.29-33.33-210.28-54.18v-34.12Z"/>
  <path class="cls-2" d="M394.54,583.35v-49.29c51.65,18.91,110.43,14.45,161.59,32.72,58.78,20.99,97.15,73.43,153.99,92.46,6.91,2.31,48.76,9.29,48.36,16.06l-40.24,25.33c-17.15-10.35-37.8-15.26-55.1-24.74-35.26-19.33-61.15-56.21-96.72-75.79-49.96-27.49-117.07-25.76-171.88-16.74Z"/>
  <path class="cls-3" d="M394.54,401.36c59.3,15.32,107.07,54.89,155.47,90.05-53.04-2-105.44-12.18-155.47-29.38v-60.66Z"/>
  <path class="cls-1" d="M1141.46,490.46c-77.59,7.28-143.72,40.72-212.32,73.91,66-47.76,129.29-106,212.32-121.31v47.39Z"/>
  <g>
    <path class="cls-4" d="M789.1,141.41c10.51,2.3,21.16,8.18,27.23,17.29,27.38-62.61,124.24-38.05,111.56,31.94-8.77,48.43-78.96,59.28-102.85,16.66l-3.94-1.19c-15.57,45.48-84.23,42.42-99.55-1.9-33.02,55.99-121.18,30.59-110.08-36.14,9.97-59.94,96.83-67.33,112.93-7.47,10.66-10.53,20.68-17.68,36.03-19.86,8.34-22.23-12.98-67.34,24.66-64.61,7.37,4.85,1.91,54.62,3.98,65.29Z"/>
    <path class="cls-4" d="M705.33,225.73c77.67-13.31,87.92,95.11,23.72,105.24-78.66,12.41-84.17-94.88-23.72-105.24Z"/>
    <path class="cls-4" d="M820.49,224.93c59.16-7.76,85.73,77.67,31.22,101.35-78.44,34.07-107.5-91.35-31.22-101.35Z"/>
    <path class="cls-4" d="M764.36,315.26c63.45-9.97,72.37,79.61,18.03,88.15-63.05,9.91-71.19-79.8-18.03-88.15Z"/>
  </g>
</svg>