<?xml version="1.0" encoding="UTF-8"?>
<svg id="Layer_1" data-name="Layer 1" xmlns="http://www.w3.org/2000/svg" viewBox="0 0 1536 1024">
  <defs>
    <style>
      .cls-1 {
        fill: none;
      }

      .cls-2 {
        fill: #7d8b6c;
      }

      .cls-3 {
        fill: #ccb797;
      }

      .cls-4 {
        fill: #8b9d83;
      }

      .cls-5 {
        fill: #fff;
      }

      .cls-6 {
        fill: #722f37;
      }
    </style>
  </defs>
  <path class="cls-5" d="M1536,0v1024H0V0h1536ZM782.13,194.88c-1.09-5.63,1.79-31.88-2.1-34.44-19.86-1.44-8.61,22.36-13.01,34.08-8.1,1.15-13.39,4.92-19.01,10.48-8.49-31.57-54.31-27.68-59.57,3.94-5.86,35.2,40.64,48.6,58.06,19.06,8.08,23.37,44.3,24.99,52.51,1l2.08.63c12.6,22.48,49.63,16.76,54.25-8.79,6.69-36.92-44.41-49.87-58.85-16.85-3.2-4.81-8.82-7.9-14.37-9.12ZM672,209h-112v257.5c0,15.42,12.18,34.64,24.09,43.91,54.62,29.75,107.82,74.22,162.24,102.76,13.94,7.31,25.21,9.57,40.64,4.3,53.75-35.15,116.46-67.17,167.93-105.07,14.09-10.37,27.1-28.68,27.1-46.9V209h-110v14h96v50c-78.66,3.25-141.63,48.39-198.5,98.02-13.34-14.54-24.86-30.76-39.49-44.54-44.82-42.18-95.22-60.13-157.01-60.5-.48-.38,1-1.27,1-1.49v-41.5h98v-14ZM798.69,238.93c-40.24,5.27-24.91,71.43,16.47,53.46,28.75-12.49,14.74-57.55-16.47-53.46ZM737.94,239.35c-31.88,5.46-28.98,62.06,12.51,55.51,33.87-5.34,28.46-62.54-12.51-55.51ZM769.08,288.05c-28.04,4.41-23.75,51.73,9.51,46.5,28.67-4.51,23.96-51.76-9.51-46.5ZM1082.8,668.3c-57.67,6.39-52.39,99.18,14.57,92.57,57.84-5.71,56.35-100.43-14.57-92.57ZM396,759l-34.5-89-18.03-1.07-35.47,90.07h19l5.88-17.4,36.48-.45,8.14,17.86h18.5ZM432,733h22.5c37.84,0,40.55-64-1-64h-39.5v90h18v-26ZM520,733h23.5c36.67,0,39.03-64-2-64h-38.5v90h17v-26ZM654,669h-62v90h63v-15h-45v-23h38v-15h-38v-21h44v-16ZM695,669h-18v90h59v-15h-41v-75ZM772,744v-72.5c0-.26.84-.64.76-1l-1.26-1.5h-16.5v90h59v-15h-42ZM828,759h18l5.88-17.4,37.48-.46,8.14,17.86h18.5l-36.47-90.08-17.64.7-33.89,89.38ZM987,669h-73v16h28v74h18c.22-.78-1-1.21-1-1.5v-72.5h28v-16ZM1023,669h-18v90h18v-90ZM1175,669h-18v90h19v-59l44.5,59h16.5v-90h-18v59.5c0,.23,1.9,1.34.49,1.51l-44.49-61.01ZM669,797h-18l1.5,81h54.5v-15h-38v-66ZM811,878l-31.99-80.51-17.53.5-30.49,80.01h17l6.14-16.86,32.97.45,5.88,16.4h18ZM872.5,797c-12.45-1.53-27.74,1.13-40.5,0v79.5l1.5,1.5h38c23.38,0,37.41-30.49,13.5-41.01,18.9-13.37,8.94-37.36-12.5-39.99Z"/>
  <path class="cls-6" d="M1175,671.82l44.49,61.01c1.42-.17-.49-1.27-.49-1.51v-59.5h18v90h-16.5l-44.5-59v59h-19v-90h18Z"/>
  <path class="cls-6" d="M1082.8,671.12c70.92-7.85,72.41,86.87,14.57,92.57-66.97,6.61-72.24-86.19-14.57-92.57ZM1085.78,687.1c-30.06,3.58-31.97,50.99-5.58,59.01,48.42,14.71,54.99-64.89,5.58-59.01Z"/>
  <path class="cls-6" d="M872.5,799.82c21.44,2.63,31.41,26.61,12.5,39.99,23.91,10.52,9.88,41.01-13.5,41.01h-38l-1.5-1.5v-79.5c12.76,1.13,28.05-1.53,40.5,0ZM850,831.82h20.5c9.59,0,8.34-17,1-17h-21.5v17ZM850,865.82h20.5c13.24,0,12.9-19,3-19h-23.5v19Z"/>
  <path class="cls-6" d="M396,761.82h-18.5l-8.14-17.86-36.48.45-5.88,17.4h-19l35.47-90.07,18.03,1.07,34.5,89ZM364,728.82l-12.5-34.01-12.5,34.01h25Z"/>
  <path class="cls-6" d="M828,761.82l33.89-89.38,17.64-.7,36.47,90.08h-18.5l-8.14-17.86-37.48.46-5.88,17.4h-18ZM859,728.82h25l-12.51-34.01-12.49,34.01Z"/>
  <polygon class="cls-6" points="654 671.82 654 687.82 610 687.82 610 708.82 648 708.82 648 723.82 610 723.82 610 746.82 655 746.82 655 761.82 592 761.82 592 671.82 654 671.82"/>
  <path class="cls-6" d="M432,735.82v26h-18v-90h39.5c41.55,0,38.84,64,1,64h-22.5ZM432,719.82h19.5c18.45,0,19.33-32,2-32h-21.5v32Z"/>
  <path class="cls-6" d="M520,735.82v26h-17v-90h38.5c41.03,0,38.67,64,2,64h-23.5ZM520,719.82h20.5c17.08,0,18.94-32,1-32h-21.5v32Z"/>
  <path class="cls-6" d="M811,880.82h-18l-5.88-16.4-32.97-.45-6.14,16.86h-17l30.49-80.01,17.53-.5,31.99,80.51ZM781,849.82l-10.5-29.01-10.5,29.01h21Z"/>
  <path class="cls-6" d="M987,671.82v16h-28v72.5c0,.29,1.22.72,1,1.5h-18v-74h-28v-16h73Z"/>
  <polygon class="cls-6" points="695 671.82 695 746.82 736 746.82 736 761.82 677 761.82 677 671.82 695 671.82"/>
  <path class="cls-6" d="M772,746.82h42v15h-59v-90h16.5l1.26,1.5c.08.36-.76.74-.76,1v72.5Z"/>
  <polygon class="cls-6" points="669 799.82 669 865.82 707 865.82 707 880.82 652.5 880.82 651 799.82 669 799.82"/>
  <path class="cls-6" d="M672,211.82v14h-98v41.5c0,.22-1.48,1.1-1,1.49,61.79.37,112.19,18.32,157.01,60.5,14.63,13.77,26.15,30,39.49,44.54,56.87-49.63,119.84-94.77,198.5-98.02v-50h-96v-14h110v256.5c0,18.22-13.01,36.53-27.1,46.9-51.47,37.9-114.18,69.92-167.93,105.07-15.44,5.26-26.7,3.01-40.64-4.3-54.42-28.54-107.63-73.01-162.24-102.76-11.91-9.27-24.09-28.49-24.09-43.91V211.82h112ZM574,279.82v15c69.6,4.15,124.57,44.5,162.12,100.91l22.86-14.41c-32.01-43.48-71.33-79.71-125.16-92.82-19.68-4.79-39.76-6.19-59.82-8.68ZM968,309.82v-23c-34.98,5.23-67.64,13-99.02,29.48-52.55,27.6-90.28,76.09-144.99,100.03l17.34,14.75,2.68.32c79.97-30.96,133.01-116.64,223.99-121.58ZM574,322.82c29.34,6.94,55.33,24.5,78.89,42.61,8.29,6.37,18.53,17.74,26.16,22.84,9.84,6.58,25.27,9.97,33.95,20.06l13.01-7.04c-35.03-52.54-87.17-90.74-152-94.48v16ZM968,344.82v-24c-47.49,4-85.21,29.96-122.33,57.17-29.26,21.45-55.35,48.12-90.68,60.33,28.13,11.57,57.84-5.01,81.53-19.48,43.04-26.28,79.09-65.76,131.48-74.02ZM574,334.82v32c26.39,9.07,54.03,14.44,82.01,15.5-25.53-18.54-50.73-39.42-82.01-47.5ZM968,381.82v-25c-43.8,8.08-77.19,38.79-112,63.99,36.19-17.51,71.07-35.15,112-38.99ZM574,378.82v18c38.5,11,75.5,7.53,110.92,28.58,20.5,12.19,37.04,31.28,60.3,38.7,9.64,3.07,20.15,2.61,28.46,9.55l29.32-22.81c-14.44,4.25-30.03,5.76-44.78,2.27-27.68-6.55-43.99-32.45-67.55-45.45-35.42-19.55-79.99-11.62-116.67-28.83ZM574,468.82c.98,9.16,4.41,18.86,11.02,25.48,12.54-.22,23.15-.69,35.52,2.49,30.75,7.91,42.5,36.12,78.27,41.73,29.15,4.57,29.94-8.66,49.51-20.89,7.75-4.84,16.97-6.88,25.05-10.95,24.88-12.54,39.3-36.51,62.97-50.03,14.7-8.39,31.22-10.4,46.34-17.66,19.25-9.24,23.2-14.98,45.59-21.41,12.86-3.69,25.55-7.9,38.78-10.22l.95-13.54c-26.55,3.9-49.09,11.12-73.35,22.14-18.64,8.47-37.33,16.62-56,25-39.07,17.53-74.61,57.37-113.32,75.68-39.86,18.85-60.83-34-91.33-47.31-20.78-9.07-38.76-4.96-59.99-.51ZM574,430.82c28.91-4.76,64.31-5.67,90.67,8.83,18.76,10.33,32.42,29.78,51.02,39.98,9.12,5,20.02,7.59,29.06,13.05l21.22-13.36c.21-3.57-21.86-7.25-25.51-8.47-29.98-10.04-50.22-37.7-81.23-48.77-26.99-9.64-58-7.28-85.24-17.26v26ZM968,435.32v-19.5c-13.59,2.66-26.74,6.7-40,10.59-20.66,6.06-28.95,14.92-47.33,22.59-12.22,5.1-25.75,7.01-37.7,13.3-20.36,10.73-33.39,30.63-51.65,43.35-12.44,8.66-25.82,10.97-37.63,18.37-20.12,12.61-23.48,26.78-52.92,23.52-39.32-4.36-55.9-39.2-89.4-44.6-2.57-.41-17.95-1.82-18.4.38l110,69.09c12.69-1.34,25.02,1.27,37.01-4.1,12.78-5.72,21.63-21.7,33.71-29.29,10.25-6.45,21.07-7.08,31.29-11.71,15.76-7.15,21.66-25.49,34.55-36.45,14.36-12.21,32.17-15.46,48.34-23.66,20.03-10.17,28.1-20.91,52.31-26.69,9.22-2.2,19.04-2.89,27.82-5.18ZM574,460.82c23.68-7.14,48.83-8.12,70.69,4.81,29.87,17.67,50.93,71.34,91.29,32.69-9.44-7.3-20.28-9.02-30.51-15.47-16.88-10.64-29.89-29.04-48.09-37.91-25.15-12.24-56.45-9.85-83.38-6.12v22ZM968,444.82c-13.42.51-28.62,3.34-40.98,8.52-11.36,4.76-20.35,13.2-31,19-17.1,9.32-41.47,13.88-55.07,27.93-9.5,9.82-13.4,22.83-26.05,30.95-10.89,7-23.54,7.48-34.57,13.43-16.18,8.72-28.7,35.16-50.84,35.16h-14.5c13.6,7,29.03,25.46,45.55,20.05,8.85-2.9,14.79-17.48,20.94-24.06,15.66-16.73,37.74-12.92,54.54-29.46,7.79-7.66,12.97-19.48,20.45-27.55,9.34-10.07,61.54-35.52,76.53-41.47,10.95-4.34,23.28-8,34.98-9.52v-23ZM967,476.83c-10.81.92-20.97,4.59-30.96,8.53-16.31,6.43-64.05,28.94-74.54,40.46-13.13,14.41-16.91,28.98-36.82,38.18-9.78,4.52-21.81,5.28-30.6,11.4-12.72,8.86-16.79,27.17-32.06,33.42,11.5,3.33,19.88-.66,29.66-5.82,51.96-27.39,102.02-68.4,153.64-97.36,10.36-7.21,18.41-16.33,21.7-28.79Z"/>
  <path class="cls-3" d="M968,435.32c-8.78,2.3-18.6,2.99-27.82,5.18-24.22,5.77-32.28,16.52-52.31,26.69-16.16,8.21-33.98,11.45-48.34,23.66-12.89,10.96-18.79,29.3-34.55,36.45-10.22,4.64-21.03,5.27-31.29,11.71-12.07,7.59-20.93,23.57-33.71,29.29-11.99,5.37-24.32,2.76-37.01,4.1l-110-69.09c.45-2.2,15.83-.8,18.4-.38,33.5,5.4,50.08,40.25,89.4,44.6,29.44,3.26,32.81-10.91,52.92-23.52,11.81-7.4,25.19-9.71,37.63-18.37,18.26-12.72,31.29-32.62,51.65-43.35,11.95-6.3,25.47-8.21,37.7-13.3,18.38-7.66,26.67-16.53,47.33-22.59,13.26-3.89,26.41-7.94,40-10.59v19.5Z"/>
  <path class="cls-3" d="M574,468.82c21.23-4.45,39.21-8.56,59.99.51,30.5,13.31,51.48,66.16,91.33,47.31,38.71-18.31,74.25-58.15,113.32-75.68,18.67-8.38,37.36-16.53,56-25,24.26-11.03,46.79-18.24,73.35-22.14l-.95,13.54c-13.23,2.33-25.92,6.53-38.78,10.22-22.39,6.43-26.34,12.17-45.59,21.41-15.12,7.26-31.64,9.26-46.34,17.66-23.68,13.52-38.09,37.49-62.97,50.03-8.08,4.07-17.29,6.11-25.05,10.95-19.57,12.23-20.35,25.46-49.51,20.89-35.77-5.61-47.52-33.82-78.27-41.73-12.36-3.18-22.98-2.71-35.52-2.49-6.61-6.62-10.03-16.31-11.02-25.48Z"/>
  <path class="cls-2" d="M968,309.82c-90.98,4.94-144.02,90.62-223.99,121.58l-2.68-.32-17.34-14.75c54.72-23.94,92.44-72.43,144.99-100.03,31.38-16.48,64.04-24.25,99.02-29.48v23Z"/>
  <path class="cls-3" d="M968,444.82v23c-11.7,1.51-24.03,5.17-34.98,9.52-14.99,5.95-67.18,31.4-76.53,41.47-7.49,8.07-12.67,19.89-20.45,27.55-16.81,16.54-38.89,12.73-54.54,29.46-6.16,6.58-12.1,21.16-20.94,24.06-16.52,5.41-31.94-13.05-45.55-20.05h14.5c22.14,0,34.65-26.44,50.84-35.16,11.03-5.95,23.68-6.43,34.57-13.43,12.64-8.13,16.54-21.14,26.05-30.95,13.6-14.05,37.96-18.61,55.07-27.93,10.65-5.8,19.64-14.24,31-19,12.36-5.18,27.56-8.01,40.98-8.52Z"/>
  <path class="cls-2" d="M968,344.82c-52.39,8.26-88.44,47.74-131.48,74.02-23.69,14.47-53.4,31.05-81.53,19.48,35.33-12.21,61.42-38.88,90.68-60.33,37.11-27.21,74.84-53.17,122.33-57.17v24Z"/>
  <path class="cls-3" d="M967,476.83c-3.28,12.46-11.34,21.59-21.7,28.79-51.61,28.97-101.67,69.98-153.64,97.36-9.78,5.16-18.16,9.15-29.66,5.82,15.27-6.25,19.34-24.56,32.06-33.42,8.79-6.12,20.82-6.88,30.6-11.4,19.92-9.2,23.7-23.76,36.82-38.18,10.49-11.52,58.23-34.03,74.54-40.46,9.99-3.94,20.16-7.6,30.96-8.53Z"/>
  <path class="cls-4" d="M574,279.82c20.05,2.49,40.14,3.89,59.82,8.68,53.83,13.1,93.16,49.34,125.16,92.82l-22.86,14.41c-37.55-56.42-92.52-96.76-162.12-100.91v-15Z"/>
  <path class="cls-4" d="M574,322.82v-16c64.83,3.74,116.97,41.95,152,94.48l-13.01,7.04c-8.69-10.09-24.11-13.48-33.95-20.06-7.63-5.1-17.87-16.47-26.16-22.84-23.56-18.11-49.55-35.67-78.89-42.61Z"/>
  <path class="cls-3" d="M574,460.82v-22c26.93-3.73,58.23-6.12,83.38,6.12,18.2,8.86,31.22,27.27,48.09,37.91,10.23,6.45,21.07,8.17,30.51,15.47-40.36,38.65-61.42-15.02-91.29-32.69-21.86-12.93-47.01-11.95-70.69-4.81Z"/>
  <path class="cls-3" d="M574,378.82c36.68,17.21,81.25,9.28,116.67,28.83,23.56,13,39.87,38.9,67.55,45.45,14.75,3.49,30.34,1.98,44.78-2.27l-29.32,22.81c-8.32-6.94-18.83-6.47-28.46-9.55-23.26-7.42-39.8-26.51-60.3-38.7-35.42-21.05-72.42-17.58-110.92-28.58v-18Z"/>
  <path class="cls-3" d="M574,430.82v-26c27.24,9.97,58.25,7.62,85.24,17.26,31.01,11.07,51.25,38.73,81.23,48.77,3.64,1.22,25.72,4.9,25.51,8.47l-21.22,13.36c-9.05-5.46-19.94-8.05-29.06-13.05-18.6-10.2-32.26-29.65-51.02-39.98-26.35-14.5-61.76-13.59-90.67-8.83Z"/>
  <path class="cls-4" d="M574,334.82c31.28,8.08,56.48,28.96,82.01,47.5-27.98-1.06-55.62-6.43-82.01-15.5v-32Z"/>
  <path class="cls-2" d="M968,381.82c-40.93,3.84-75.81,21.48-112,38.99,34.81-25.19,68.2-55.91,112-63.99v25Z"/>
  <g>
    <path class="cls-6" d="M782.13,197.69c5.55,1.22,11.16,4.31,14.37,9.12,14.44-33.03,65.54-20.07,58.85,16.85-4.63,25.55-41.65,31.27-54.25,8.79l-2.08-.63c-8.21,23.99-44.43,22.37-52.51-1-17.42,29.54-63.92,16.14-58.06-19.06,5.26-31.62,51.08-35.52,59.57-3.94,5.62-5.55,10.91-9.33,19.01-10.48,4.4-11.73-6.85-35.52,13.01-34.08,3.89,2.56,1.01,28.81,2.1,34.44Z"/>
    <path class="cls-6" d="M737.94,242.17c40.97-7.02,46.38,50.17,12.51,55.51-41.49,6.55-44.4-50.05-12.51-55.51Z"/>
    <path class="cls-6" d="M798.69,241.75c31.21-4.09,45.22,40.97,16.47,53.46-41.38,17.97-56.71-48.19-16.47-53.46Z"/>
    <path class="cls-6" d="M769.08,289.4c33.47-5.26,38.18,41.99,9.51,46.5-33.26,5.23-37.55-42.09-9.51-46.5Z"/>
  </g>
  <rect class="cls-6" x="1005" y="671.82" width="18" height="90"/>
  <path class="cls-5" d="M1085.78,687.1c49.41-5.89,42.84,73.72-5.58,59.01-26.39-8.02-24.48-55.43,5.58-59.01Z"/>
  <path class="cls-5" d="M850,865.82v-19h23.5c9.9,0,10.24,19-3,19h-20.5Z"/>
  <path class="cls-5" d="M850,831.82v-17h21.5c7.34,0,8.59,17-1,17h-20.5Z"/>
  <polygon class="cls-5" points="364 728.82 339 728.82 351.5 694.8 364 728.82"/>
  <polygon class="cls-1" points="859 728.82 871.49 694.81 884 728.82 859 728.82"/>
  <path class="cls-5" d="M432,719.82v-32h21.5c17.33,0,16.45,32-2,32h-19.5Z"/>
  <path class="cls-5" d="M520,719.82v-32h21.5c17.94,0,16.08,32-1,32h-20.5Z"/>
  <polygon class="cls-5" points="781 849.82 760 849.82 770.5 820.8 781 849.82"/>
</svg>